# xmcd
#
# Track frame offsets: 
#        187
#        9830
#        22880
#        40200
#        59695
#        77077
#        92822
#        106922
#        119750
#        133187
#
# Disc length: 2046 seconds
#
# Revision: 4
# Processed by: cddbd v1.5.2PL0 Copyright (c) Steve Scherf et al.
# Submitted via: ExactAudioCopy v1.1
#
DISCID=7e07fc0a
DTITLE=Gail Davies - Pretty Words
DYEAR=1989
DGENRE=Country
TTITLE0=Waiting Here For You
TTITLE1=I Don't Know Why
TTITLE2=Hearts In The Wind
TTITLE3=I've Had Enough
TTITLE4=Somewhere Tonight
TTITLE5=Pretty Words
TTITLE6=It's Just A Matter Of Time
TTITLE7=I'm Ready To Fall In Love Again
TTITLE8=Meet Me Halfway
TTITLE9=I Will Rise And Shine Again
EXTD=MillenniumMusicProjectFormat YEAR: 1989
EXTT0=
EXTT1=
EXTT2=
EXTT3=
EXTT4=
EXTT5=
EXTT6=
EXTT7=
EXTT8=
EXTT9=
PLAYORDER=
